<?xml version="1.0" standalone="no"?>
<!DOCTYPE svg PUBLIC "-//W3C//DTD SVG 20010904//EN"
 "http://www.w3.org/TR/2001/REC-SVG-20010904/DTD/svg10.dtd">
<svg version="1.0" xmlns="http://www.w3.org/2000/svg"
 width="500.000000pt" height="500.000000pt" viewBox="0 0 500.000000 500.000000"
 preserveAspectRatio="xMidYMid meet">
<metadata>
Created by potrace 1.14, written by Peter Selinger 2001-2017
</metadata>
<g transform="translate(0.000000,500.000000) scale(0.100000,-0.100000)"
fill="#000000" stroke="none">
<path d="M2428 4864 c-2 -1 -38 -5 -82 -9 -43 -3 -89 -11 -102 -16 -13 -4 -24
-7 -24 -4 0 2 -19 -4 -42 -14 -24 -10 -49 -16 -55 -14 -7 3 -13 0 -13 -5 0 -5
-16 -13 -35 -16 -19 -4 -35 -11 -35 -16 0 -5 -11 -12 -24 -16 -14 -3 -32 -14
-42 -25 -9 -10 -22 -19 -28 -19 -28 0 -212 -181 -198 -194 3 -3 0 -6 -6 -6
-14 0 -73 -120 -65 -133 3 -6 1 -7 -5 -3 -7 4 -13 -7 -18 -29 -3 -19 -10 -38
-15 -40 -8 -5 -25 -92 -21 -107 1 -5 -2 -8 -7 -8 -5 0 -7 -14 -6 -30 3 -41 -6
-45 -112 -54 -28 -3 -61 -9 -72 -16 -12 -6 -21 -8 -21 -5 0 3 -10 0 -22 -7
-13 -7 -25 -13 -28 -13 -3 0 -27 -12 -55 -25 -27 -13 -54 -24 -60 -24 -5 -1
-19 -10 -31 -21 -38 -37 -88 -75 -98 -75 -5 0 -6 -3 -3 -6 4 -4 -12 -29 -34
-55 -23 -27 -37 -49 -33 -49 4 0 0 -8 -9 -18 -10 -10 -14 -22 -10 -25 3 -4 1
-7 -4 -7 -6 0 -10 -8 -9 -17 2 -10 0 -20 -4 -23 -20 -13 -37 -130 -33 -225 2
-55 4 -112 4 -127 1 -16 5 -28 10 -28 5 0 9 -7 9 -15 0 -8 4 -23 8 -33 5 -9
19 -39 32 -65 13 -27 36 -61 52 -75 15 -15 28 -33 28 -41 0 -8 3 -12 6 -8 4 3
12 1 19 -6 40 -38 105 -81 105 -70 0 5 4 3 8 -2 4 -6 19 -18 35 -28 19 -13 27
-14 27 -5 0 9 3 10 8 2 7 -12 52 -29 65 -26 4 1 7 -2 7 -6 0 -4 9 -9 20 -10
11 -1 29 -3 40 -4 11 -1 20 -5 20 -8 0 -7 14 -9 60 -11 52 -1 69 -36 73 -151
1 -27 7 -48 12 -48 6 0 3 -5 -5 -10 -8 -5 -10 -10 -5 -10 6 0 9 -37 8 -97 -3
-125 -5 -132 -34 -155 -13 -10 -37 -29 -53 -41 -45 -35 -148 -139 -180 -182
-17 -22 -36 -44 -43 -48 -7 -5 -11 -12 -8 -16 2 -5 -2 -14 -10 -21 -8 -7 -15
-17 -15 -22 0 -5 -9 -18 -20 -30 -10 -12 -17 -24 -15 -28 3 -5 -2 -10 -10 -14
-8 -3 -15 -12 -15 -21 0 -8 -5 -15 -11 -15 -5 0 -7 -4 -4 -10 3 -5 1 -10 -5
-10 -6 0 -9 -4 -5 -9 3 -5 0 -15 -7 -23 -7 -7 -13 -17 -13 -23 -1 -5 -13 -35
-28 -66 -14 -31 -32 -78 -38 -105 -6 -27 -15 -58 -20 -69 -12 -30 -32 -125
-36 -170 -7 -78 -9 -185 -4 -185 3 0 7 -30 8 -68 3 -92 9 -151 17 -159 3 -3 6
-19 6 -34 0 -15 4 -30 9 -34 6 -3 9 -13 9 -23 -1 -29 9 -67 32 -118 13 -27 21
-49 19 -50 -2 0 3 -9 11 -18 8 -10 16 -27 17 -39 2 -12 7 -24 11 -27 4 -3 16
-22 27 -43 11 -20 30 -48 42 -62 13 -13 23 -28 23 -33 0 -26 191 -212 217
-212 9 0 14 -3 10 -6 -6 -6 101 -84 116 -84 4 0 17 -8 28 -19 24 -22 194 -108
224 -113 11 -2 22 -6 25 -9 10 -11 161 -51 175 -45 8 3 15 2 15 -2 0 -9 229
-7 295 2 105 15 117 18 168 32 82 23 118 36 159 59 14 8 33 15 42 15 9 0 16 4
16 10 0 5 3 9 8 8 10 -4 72 35 72 45 0 4 5 5 10 2 6 -3 10 -1 10 4 0 6 7 11
15 11 8 0 15 5 15 11 0 5 5 7 10 4 6 -3 13 1 16 9 3 9 11 16 16 16 6 0 19 10
29 22 11 11 19 18 19 14 0 -11 178 171 225 229 22 28 52 62 66 77 40 40 43 67
11 79 -18 7 -28 7 -30 0 -2 -6 -8 -8 -13 -5 -6 3 -15 1 -22 -4 -7 -6 -14 -10
-17 -10 -9 0 -85 -13 -98 -18 -91 -28 -175 -40 -282 -38 -63 2 -128 5 -145 8
-51 10 -70 14 -70 16 0 1 -9 3 -20 5 -11 1 -39 7 -62 13 -23 5 -44 7 -48 4 -3
-3 -5 -1 -5 4 0 5 -17 10 -37 12 -21 1 -42 7 -47 12 -6 6 -18 10 -28 10 -10 0
-18 4 -18 8 0 5 -6 9 -12 10 -19 1 -95 30 -141 54 -23 11 -44 20 -46 19 -2 -2
-8 4 -13 13 -5 9 -16 16 -23 16 -8 0 -15 5 -15 10 0 6 -6 10 -14 10 -8 0 -28
16 -45 35 -17 20 -31 33 -31 29 0 -3 -34 35 -75 85 -41 50 -75 92 -75 95 0 3
-13 25 -30 49 -16 25 -30 50 -30 56 0 6 -5 11 -11 11 -6 0 -9 7 -5 15 3 8 -1
30 -9 49 -8 18 -17 47 -20 62 -2 16 -7 40 -10 53 -18 91 -23 260 -10 366 12
104 13 110 15 113 1 1 4 11 5 22 1 11 3 21 5 23 1 1 3 9 5 17 2 8 6 29 10 45
3 17 8 41 10 55 2 14 4 25 5 25 1 0 3 7 5 16 1 9 17 46 34 83 18 36 31 69 31
72 -1 4 3 10 8 13 5 3 17 21 26 39 9 18 21 30 26 27 6 -4 10 0 10 8 0 12 83
107 94 107 8 0 156 138 156 146 0 2 -12 3 -27 0 -16 -2 -28 -5 -28 -6 0 -1
-26 -3 -58 -6 -33 -2 -84 -11 -115 -21 -32 -9 -63 -16 -69 -16 -7 0 -13 -4
-13 -9 0 -4 -6 -8 -12 -8 -7 0 -25 -7 -40 -14 -21 -11 -28 -12 -29 -3 -1 7 -3
66 -4 132 -4 124 -10 178 -26 207 -5 9 -8 21 -8 25 1 4 -3 22 -10 38 -7 17
-13 38 -14 48 -1 9 -5 17 -10 17 -4 0 -6 4 -3 9 12 19 -23 30 -109 34 -50 3
-91 6 -92 7 -2 1 -11 3 -20 4 -10 1 -34 9 -53 17 -19 9 -57 24 -83 35 -26 10
-61 31 -78 47 -17 15 -33 27 -37 27 -4 0 -16 14 -27 30 -11 16 -23 30 -27 30
-5 0 -8 8 -8 18 0 10 -5 23 -11 29 -5 5 -11 21 -13 34 -1 14 -6 31 -11 39 -11
18 -10 194 1 212 5 7 10 22 11 32 11 70 94 180 159 211 19 9 34 20 34 25 0 6
3 9 8 8 4 -1 25 6 47 16 22 10 51 20 65 22 14 3 32 7 40 11 24 10 100 11 101
2 1 -5 2 -17 3 -26 5 -46 29 -153 35 -153 4 0 13 -20 20 -45 7 -25 16 -45 20
-45 4 0 15 -20 25 -45 11 -25 24 -45 30 -45 6 0 20 -14 31 -31 11 -17 28 -35
38 -40 22 -13 22 -7 -3 21 -11 13 -20 29 -20 35 0 7 -7 18 -15 25 -8 7 -15 21
-15 31 0 11 -4 19 -9 19 -12 0 -24 43 -35 120 -3 23 -8 45 -11 51 -4 5 -2 9 4
9 7 0 7 8 2 23 -13 36 -1 210 19 261 5 14 7 26 4 26 -2 0 1 10 8 23 7 12 13
24 13 27 1 3 6 16 12 30 6 14 18 43 28 66 9 23 28 53 41 67 13 14 24 31 24 36
0 15 141 151 157 151 7 0 13 4 13 9 0 12 116 72 124 64 3 -3 6 -1 6 6 0 8 7
11 15 7 8 -3 15 -1 15 4 0 5 17 12 38 17 48 9 52 10 55 13 3 2 38 9 67 13 14
2 30 6 35 8 12 7 222 2 253 -5 12 -3 26 -7 31 -10 5 -4 12 0 14 6 4 10 6 10 6
0 1 -7 5 -11 10 -8 5 3 22 2 37 -3 16 -5 49 -15 74 -22 25 -7 50 -16 56 -21 6
-4 14 -5 18 -1 4 4 11 1 16 -7 5 -8 13 -15 17 -15 41 0 205 -145 246 -219 57
-100 77 -142 77 -158 0 -10 4 -26 10 -36 16 -30 39 -145 37 -190 -1 -23 1 -42
4 -42 7 0 5 -32 -3 -45 -7 -11 16 -48 24 -39 3 2 30 6 59 8 30 3 54 5 54 6 0
1 12 3 28 4 15 2 27 -2 27 -8 0 -7 3 -8 8 -1 9 13 42 13 61 1 10 -7 12 -6 6 4
-6 10 -4 11 6 4 8 -5 28 -9 44 -10 17 0 41 -4 55 -8 14 -4 39 -8 55 -10 17 -2
32 -5 35 -6 3 -1 10 -3 15 -4 37 -4 157 -78 198 -121 41 -42 80 -97 77 -107
-1 -2 1 -10 4 -18 22 -57 33 -110 24 -110 -7 0 -6 -5 1 -14 11 -14 13 -121 2
-141 -3 -5 -6 -21 -7 -35 -1 -14 -11 -46 -22 -72 -12 -27 -19 -48 -17 -48 5 0
-8 -16 -52 -65 -10 -12 -33 -31 -51 -44 -39 -27 -151 -73 -163 -66 -4 3 -10 1
-13 -4 -3 -5 -19 -7 -36 -6 -16 1 -30 0 -30 -4 0 -5 -133 -7 -164 -2 -5 0 -3
8 4 16 7 8 9 15 4 15 -5 0 -4 4 1 8 6 4 20 30 31 59 18 43 21 69 19 145 -1 51
-7 104 -13 118 -12 27 -13 27 -18 -10 -6 -43 -9 -55 -17 -67 -5 -7 -6 -13 -3
-13 4 0 -3 -17 -14 -37 -11 -21 -20 -43 -20 -49 0 -6 -7 -17 -15 -24 -9 -7
-13 -15 -11 -17 2 -3 -9 -19 -25 -35 -16 -17 -29 -35 -29 -40 0 -12 -140 -148
-152 -148 -5 0 -24 -11 -42 -25 -18 -14 -36 -22 -39 -18 -4 3 -7 1 -7 -5 0
-10 -65 -29 -83 -24 -5 2 -7 -3 -5 -10 5 -15 57 -19 75 -6 7 5 14 5 18 -2 3
-6 12 -7 18 -3 6 4 18 8 27 8 43 4 98 19 131 36 40 20 50 16 41 -16 -9 -31
-12 -255 -4 -255 4 0 8 -15 9 -32 5 -89 16 -136 29 -131 10 4 11 9 4 18 -5 6
-7 15 -3 18 3 4 7 24 9 44 2 35 5 53 19 123 17 87 47 195 56 200 4 3 65 5 136
4 78 0 133 4 142 10 8 6 15 9 15 7 2 -9 81 11 115 30 20 10 41 19 48 19 7 0
13 5 13 11 0 5 4 8 9 5 22 -14 149 117 190 197 33 63 70 189 65 220 -1 9 2 17
7 17 6 0 7 6 0 17 -5 10 -5 26 -1 39 5 12 6 25 2 28 -10 11 -9 46 2 46 7 0 8
3 1 8 -6 4 -10 14 -10 22 1 17 -22 128 -32 150 -3 8 -5 18 -5 23 1 4 -2 7 -8
7 -6 0 -9 3 -8 8 4 18 -36 92 -50 92 -8 0 -13 3 -9 6 3 3 0 12 -6 20 -38 45
-66 74 -71 74 -4 0 -18 11 -32 25 -14 14 -30 23 -35 20 -5 -4 -9 -2 -9 4 0 5
-16 15 -35 22 -19 7 -35 17 -35 21 0 4 -8 8 -18 8 -10 0 -23 5 -28 10 -6 6
-21 13 -35 16 -13 3 -33 7 -44 9 -11 3 -29 7 -40 9 -11 2 -31 7 -45 10 -40 9
-120 18 -177 20 -56 1 -51 -4 -70 71 -3 11 -7 32 -10 48 -3 15 -9 27 -14 27
-4 0 -7 8 -7 18 2 31 -23 102 -52 153 -17 27 -30 56 -30 64 0 8 -4 15 -8 15
-5 0 -15 12 -22 28 -8 15 -26 39 -40 53 -14 14 -32 35 -40 45 -26 33 -124 116
-147 125 -13 5 -23 13 -23 18 0 5 -11 12 -25 15 -14 4 -25 11 -25 16 0 6 -8
10 -18 10 -10 0 -22 4 -28 8 -5 5 -36 17 -69 27 -33 11 -66 23 -73 29 -7 5
-15 6 -18 3 -3 -3 -16 -2 -28 3 -35 13 -121 22 -233 24 -57 2 -104 2 -105 0z"/>
<path d="M3230 2289 c-25 -6 -50 -11 -57 -13 -7 -1 -16 -5 -19 -9 -4 -4 -16
-7 -26 -7 -10 0 -18 -4 -18 -8 0 -5 -17 -14 -38 -20 -21 -7 -47 -21 -57 -32
-10 -11 -24 -20 -32 -20 -7 0 -13 -7 -13 -15 0 -8 -4 -15 -8 -15 -14 0 -52
-36 -52 -49 0 -6 -7 -14 -15 -17 -8 -4 -13 -9 -11 -13 9 -13 -42 -64 -58 -58
-13 5 -16 26 -16 132 l0 125 -207 -2 -208 -3 0 -658 c0 -362 2 -662 5 -666 4
-7 36 -22 50 -25 3 -1 11 -5 18 -9 6 -5 16 -6 21 -2 5 3 12 1 15 -4 3 -5 23
-12 43 -16 21 -5 45 -10 53 -12 38 -11 120 -22 171 -22 l56 -1 1 338 c1 185 6
362 11 392 14 79 43 170 53 170 5 0 7 4 4 8 -10 16 99 119 148 141 27 12 51
19 53 17 3 -2 19 1 36 9 38 15 183 11 203 -6 8 -6 14 -9 14 -5 0 11 63 -25 93
-53 22 -21 43 -61 52 -101 15 -60 18 -176 18 -669 0 -372 3 -591 10 -598 5 -7
5 -13 1 -13 -5 0 -9 -20 -9 -45 0 -25 4 -45 8 -45 5 0 5 -5 2 -11 -10 -15 23
-79 57 -112 79 -77 210 -80 291 -7 32 28 70 98 61 112 -3 5 0 15 6 23 9 11 9
15 1 15 -13 0 -10 22 4 32 7 5 7 8 0 8 -11 0 -13 69 -2 87 10 15 7 1242 -2
1248 -5 2 -8 15 -7 27 1 13 -2 34 -7 48 -4 13 -11 43 -14 65 -5 37 -39 124
-53 135 -4 3 -17 24 -30 48 -13 23 -27 42 -30 42 -4 0 -24 15 -44 34 -20 19
-46 38 -58 42 -13 3 -31 13 -40 22 -10 8 -18 12 -18 7 0 -4 -6 -3 -13 3 -41
34 -292 53 -397 31z"/>
</g>
</svg>
